<?xml version="1.0" encoding="utf-8"?>
<!-- Svg Vector Icons : http://www.onlinewebfonts.com/icon -->
<!DOCTYPE svg PUBLIC "-//W3C//DTD SVG 1.1//EN" "http://www.w3.org/Graphics/SVG/1.1/DTD/svg11.dtd">
<svg version="1.1" xmlns="http://www.w3.org/2000/svg" xmlns:xlink="http://www.w3.org/1999/xlink" x="0px" y="0px" viewBox="0 0 1000 1000" enable-background="new 0 0 1000 1000" xml:space="preserve">
<metadata> Svg Vector Icons : http://www.onlinewebfonts.com/icon </metadata>
<g><g transform="translate(0.000000,511.000000) scale(0.100000,-0.100000)"><path d="M4914.9,3222.4c-32.7-9.6-96.1-48.1-140.3-86.5c-171.1-146.1-215.3-344.1-124.9-576.6c7.7-21.1-7.7-26.9-65.4-26.9c-115.3,0-534.3-55.7-736.2-98c-349.8-71.1-593.9-173-709.3-294.1c-53.8-55.7-65.4-82.7-65.4-149.9c0-46.1,13.5-109.6,30.7-142.2l30.8-59.6l-134.6-92.3c-278.7-190.3-647.7-586.2-801.5-859.2c-44.2-76.9-61.5-92.3-107.6-92.3c-142.2,0-336.4,190.3-626.6,618.9c-280.6,413.3-422.9,593.9-492.1,622.8c-82.6,34.6-190.3,32.7-517-9.6c-272.9-34.6-355.6-59.6-355.6-105.7c0-15.4,51.9-76.9,117.3-138.4C557.5,1404.1,682.4,1110,897.7,120.2c80.7-369,161.5-642,240.3-797.7c173-342.1,434.4-538.2,811.1-601.6l128.8-23.1l61.5-115.3C2852.5-2768.8,4690-3380,6318-2811.1c371,130.7,734.3,338.3,1043.7,599.7c146.1,124.9,349.8,342.1,419,449.8c21.2,32.7,65.4,51.9,167.2,75C9128.1-1419.5,9956.6-469.9,9897,548.8c-28.8,492.1-242.2,959.1-547.8,1205.2c-501.7,401.7-1120.6,297.9-1572.3-263.3c-65.4-80.7-126.9-161.5-138.4-180.7c-17.3-30.8-36.5-19.2-171.1,109.6c-82.6,78.8-221,194.1-307.5,257.6l-157.6,113.4l28.8,51.9c15.4,30.8,26.9,92.3,26.9,140.3c0,159.5-157.6,280.6-499.7,382.5c-269.1,80.7-786.2,167.2-1003.3,167.2c-82.6,0-82.6,0-42.3,115.3c57.7,165.3,0,361.4-146.1,484.4C5247.4,3234,5074.4,3270.5,4914.9,3222.4z M8976.3,1542.5c242.2-130.7,434.4-426.7,507.5-774.6C9597.1,222,9404.9-331.5,8960.9-739c-242.2-224.9-490.1-330.6-684.3-292.2c-109.6,19.2-107.7,15.4-55.8,248c48.1,213.3,48.1,651.6,1.9,874.6c-46.1,215.3-132.6,457.5-221,624.7l-73,134.5l34.6,101.9c80.7,234.5,236.4,459.4,388.3,555.5c132.6,82.6,203.8,101.9,369,96.1C8847.5,1598.3,8893.6,1588.6,8976.3,1542.5z"/></g></g>
</svg>